<?xml version="1.0" standalone="no"?>
<!DOCTYPE svg PUBLIC "-//W3C//DTD SVG 20010904//EN"
 "http://www.w3.org/TR/2001/REC-SVG-20010904/DTD/svg10.dtd">
<svg version="1.0" xmlns="http://www.w3.org/2000/svg"
 width="600.000000pt" height="436.000000pt" viewBox="0 0 600.000000 436.000000"
 preserveAspectRatio="xMidYMid meet">

<g transform="translate(0.000000,436.000000) scale(0.100000,-0.100000)"
fill="#000000" stroke="none">
<path d="M2800 4353 c-256 -13 -573 -62 -804 -123 -1044 -275 -1786 -930
-1956 -1727 -27 -124 -37 -390 -21 -518 73 -567 437 -1077 1039 -1458 272
-172 627 -319 982 -406 336 -83 587 -113 955 -113 533 0 979 81 1430 259 858
340 1437 959 1550 1658 19 115 19 392 1 506 -155 954 -1155 1726 -2451 1893
-231 30 -506 41 -725 29z m706 -62 c1285 -174 2252 -919 2411 -1861 22 -130
21 -374 -2 -505 -105 -605 -533 -1128 -1220 -1491 -56 -30 -107 -54 -113 -54
-6 0 -35 18 -64 40 -64 49 -220 130 -308 160 -108 36 -229 60 -347 67 -62 3
-110 10 -107 15 3 4 2 8 -1 8 -13 0 -226 -112 -221 -117 2 -3 32 5 66 18 39
14 57 25 49 30 -45 27 218 30 358 4 177 -33 327 -92 462 -182 97 -65 103 -55
-65 -121 -302 -121 -635 -202 -999 -244 -171 -20 -667 -17 -845 5 -365 45
-648 116 -963 239 -102 41 -125 53 -116 64 19 23 167 114 234 144 167 75 339
110 540 110 298 0 550 -91 702 -253 l59 -64 22 33 c30 46 133 129 204 165 l61
31 -7 -28 c-13 -52 -56 -267 -56 -278 1 -6 16 31 35 81 146 404 470 698 945
858 74 25 119 43 100 39 -126 -24 -389 -139 -530 -232 -206 -137 -366 -319
-470 -534 -22 -44 -41 -83 -44 -85 -2 -3 5 35 16 84 10 48 32 153 47 233 29
152 32 154 47 27 9 -84 26 -58 34 56 10 130 38 188 136 284 73 73 102 89 70
41 -22 -34 -42 -96 -49 -153 l-7 -50 15 37 c17 45 79 138 129 193 36 39 37 39
21 8 -8 -18 -15 -47 -15 -65 l1 -33 13 38 c20 56 59 101 127 146 82 55 96 52
32 -7 -47 -43 -83 -92 -67 -92 9 0 120 103 114 105 -8 4 32 45 44 45 6 0 0 -9
-14 -20 -37 -29 -17 -24 37 9 41 25 87 42 208 77 16 5 14 0 -11 -27 -66 -71
-74 -123 -10 -60 53 52 89 59 205 37 46 -9 99 -16 118 -16 l35 0 -49 -36 c-26
-20 -59 -47 -73 -59 -33 -30 -77 -52 -124 -60 -26 -5 -34 -10 -24 -16 25 -16
99 -10 131 12 l32 21 -28 -26 c-16 -15 -66 -37 -125 -55 -117 -37 -173 -70
-235 -143 -68 -80 -141 -116 -387 -192 -96 -30 -124 -44 -172 -83 -52 -44 -74
-71 -65 -80 2 -2 32 11 65 29 34 17 60 33 58 35 -2 3 -28 -8 -58 -23 -48 -24
-51 -25 -34 -5 19 21 82 44 96 36 5 -3 49 13 99 36 50 22 95 38 100 34 6 -3
28 2 50 11 37 14 49 14 152 -1 201 -29 412 -113 554 -220 33 -25 62 -40 63
-35 8 23 -60 104 -255 301 -154 156 -200 209 -191 216 27 22 96 52 168 73 92
27 133 51 159 94 31 50 26 52 -30 7 -37 -29 -61 -41 -83 -40 -30 1 -30 1 -5 8
44 14 73 32 116 74 l43 41 32 -30 c18 -16 55 -50 82 -77 26 -26 53 -47 59 -47
22 0 205 148 297 240 391 391 505 860 319 1317 -219 541 -862 971 -1669 1117
-239 43 -340 51 -630 50 -295 -1 -423 -12 -660 -60 -903 -181 -1565 -706
-1684 -1334 -20 -105 -20 -295 0 -400 17 -93 63 -229 104 -311 107 -211 344
-468 567 -614 l43 -27 105 97 105 97 0 702 0 701 -98 -3 c-109 -4 -130 6 -118
53 7 29 -35 17 467 134 l386 91 795 0 795 0 234 -55 c129 -31 313 -74 409 -96
96 -23 183 -45 193 -50 20 -11 23 -49 5 -67 -8 -8 -51 -12 -127 -12 l-114 0 6
-661 c5 -520 9 -664 19 -677 11 -14 10 -15 -12 -9 -46 13 -128 20 -153 13 -14
-3 -40 -18 -59 -33 -24 -20 -20 -14 15 24 54 60 61 80 20 60 -16 -8 -57 -22
-93 -32 -36 -9 -78 -24 -95 -33 -16 -8 -51 -16 -77 -16 l-48 -2 0 73 0 73
-225 0 -225 0 0 -95 0 -95 -54 0 c-41 0 -57 -4 -67 -19 -8 -11 -24 -22 -36
-26 -21 -6 -23 -3 -23 29 0 20 -4 36 -10 36 -6 0 -10 73 -10 200 l0 200 -140
0 -140 0 0 -200 c0 -127 -4 -200 -10 -200 -6 0 -10 73 -10 200 l0 200 -140 0
-140 0 0 -187 c0 -271 -4 -284 -74 -248 -15 8 -44 15 -62 15 l-34 0 0 95 0 95
-225 0 -225 0 0 -95 0 -95 -55 0 -55 0 0 -64 0 -65 49 -3 50 -3 -126 -119
c-270 -255 -508 -514 -490 -532 3 -3 41 19 84 49 296 207 671 274 1033 186
156 -38 347 -146 414 -233 40 -53 31 -63 -16 -19 -182 167 -464 255 -768 239
-261 -13 -473 -83 -673 -223 l-78 -54 -102 52 c-210 106 -362 204 -532 344
-379 312 -621 694 -712 1125 -28 132 -25 470 5 603 83 372 260 677 563 972
356 346 833 600 1389 740 210 53 381 81 675 109 22 2 173 2 335 1 225 -3 331
-9 446 -24z m-1836 -1101 c5 -107 6 -115 25 -115 19 0 20 8 23 118 l3 118 47
-3 47 -3 5 -115 c5 -111 6 -115 28 -116 22 -1 22 1 22 118 l0 119 48 -3 47 -3
3 -157 3 -158 -201 0 -200 0 0 153 c0 85 3 157 7 161 4 4 25 6 48 4 l40 -3 5
-115z m441 58 c-1 -32 0 -58 3 -58 3 0 17 23 31 50 27 53 53 70 106 70 27 0
29 -3 29 -35 0 -29 -5 -37 -25 -45 -14 -5 -30 -21 -35 -34 -5 -13 -14 -27 -20
-31 -8 -5 -3 -16 14 -34 14 -14 36 -52 50 -83 l26 -58 -55 0 -54 0 -27 60
c-15 33 -31 60 -35 60 -5 0 -9 -27 -9 -60 l0 -60 -45 0 -45 0 0 161 0 160 47
-3 47 -3 -3 -57z m414 48 c90 -38 113 -185 40 -264 -33 -36 -35 -37 -108 -37
-66 0 -79 3 -102 25 -79 73 -72 210 14 267 40 27 104 30 156 9z m395 -146 l0
-160 -50 0 -50 0 0 115 0 115 -30 0 -30 0 0 -89 c0 -112 -12 -131 -88 -139
l-52 -5 0 36 c0 27 5 37 20 42 18 6 20 15 20 119 0 62 3 116 7 119 3 4 62 7
130 7 l123 0 0 -160z m287 10 c29 -80 52 -151 52 -157 1 -9 -15 -13 -48 -13
-44 0 -49 3 -55 25 -6 22 -11 25 -55 25 -44 0 -49 -3 -55 -25 -6 -22 -11 -25
-56 -25 l-50 0 49 139 c67 189 62 183 119 179 l47 -3 52 -145z m349 73 l49
-78 5 75 5 75 43 0 c23 0 42 -3 42 -7 0 -5 0 -75 0 -158 l0 -150 -42 0 c-43 0
-43 1 -95 82 l-53 81 0 -81 0 -82 -45 0 -45 0 0 153 c0 85 3 157 7 160 3 4 23
7 44 7 35 0 39 -3 85 -77z m622 35 l3 -38 -65 0 c-54 0 -66 -3 -66 -16 0 -12
6 -15 24 -10 56 14 116 -36 116 -95 0 -82 -41 -119 -130 -119 -44 0 -56 5 -81
29 -39 40 -37 57 9 65 30 5 40 2 53 -15 9 -12 24 -20 35 -17 15 2 19 12 19 43
0 34 -3 40 -23 43 -13 2 -28 -1 -35 -6 -7 -5 -27 -7 -46 -5 l-33 6 7 65 c12
115 10 113 117 110 l93 -3 3 -37z m232 -118 l0 -160 -45 0 -45 0 0 100 0 100
-40 -20 c-21 -11 -42 -20 -45 -20 -3 0 -5 16 -5 35 0 30 6 38 40 60 22 14 46
34 52 45 9 14 24 20 50 20 l38 0 0 -160z m-523 86 c23 -20 28 -32 28 -70 0
-59 -26 -86 -88 -93 -41 -5 -49 -2 -77 25 -39 40 -41 88 -4 131 22 26 33 31
69 31 32 0 52 -7 72 -24z m23 -206 l0 -30 -90 0 -90 0 0 30 0 30 90 0 90 0 0
-30z m-960 -1510 l0 -90 -114 0 -114 0 -4 83 c-3 45 -3 85 -1 90 2 4 56 7 119
7 l114 0 0 -90z m290 0 l0 -91 -115 2 c-99 1 -115 3 -115 18 -1 34 -2 146 -1
154 1 4 53 7 116 7 l115 0 0 -90z m-586 -370 c90 -23 173 -61 274 -125 l72
-47 0 -271 0 -271 -47 45 c-163 157 -405 239 -703 239 -261 0 -503 -69 -705
-202 -49 -31 -15 5 176 194 353 350 370 364 465 389 289 78 338 83 468 49z
m1000 3 c17 -9 17 -11 1 -16 -9 -4 -13 -12 -9 -18 4 -8 3 -9 -5 -5 -19 12
-154 -127 -191 -196 -28 -52 -33 -74 -38 -151 -6 -100 -16 -97 -27 7 -4 38
-11 79 -15 90 -8 20 -9 20 -9 -3 -1 -14 -8 -67 -18 -118 l-16 -93 -80 -43
c-44 -23 -111 -68 -148 -100 l-69 -57 0 265 0 265 43 31 c58 42 231 126 297
144 62 17 253 16 284 -2z m66 -19 c0 -3 -21 -31 -46 -61 -25 -31 -52 -69 -60
-86 -23 -43 -28 -26 -8 24 26 66 72 129 94 129 11 0 20 -3 20 -6z m-670 -104
c-14 -11 -32 -20 -40 -20 -8 0 -26 9 -40 20 l-25 20 65 0 65 0 -25 -20z m1385
-441 c108 -110 109 -111 50 -72 -80 54 -184 105 -275 136 -99 34 -264 67 -334
67 -31 0 -56 5 -56 10 0 6 6 10 13 10 7 0 49 17 93 39 57 27 93 53 124 88 l45
50 115 -108 c63 -59 165 -158 225 -220z m-720 86 c-33 -14 -76 -27 -95 -31
-19 -3 -46 -7 -60 -10 -18 -4 -22 -2 -14 6 16 16 153 58 194 59 33 0 31 -1
-25 -24z m-402 -88 c-3 -16 -25 -33 -78 -60 -40 -21 -102 -65 -138 -98 -36
-32 -68 -59 -71 -59 -44 0 112 151 211 203 37 20 71 37 74 37 3 0 4 -10 2 -23z"/>
<path d="M2733 4163 c-38 -5 -38 -6 -26 -150 5 -72 8 -83 24 -83 16 0 19 8 19
44 l0 43 50 7 c34 5 54 13 65 29 23 33 19 72 -11 96 -26 20 -48 23 -121 14z
m101 -55 c15 -24 -9 -45 -54 -50 -34 -3 -35 -2 -38 35 l-3 38 42 -3 c26 -2 46
-9 53 -20z"/>
<path d="M2935 4068 c-21 -57 -40 -109 -43 -115 -2 -8 4 -13 16 -13 13 0 23
10 30 28 9 25 12 27 61 23 44 -2 54 -7 63 -27 7 -15 20 -24 33 -24 21 0 21 4
-24 115 -42 105 -48 115 -72 115 -23 0 -29 -9 -64 -102z m86 7 l17 -45 -39 0
-38 0 17 45 c9 25 19 45 22 45 3 0 12 -20 21 -45z"/>
<path d="M3172 4154 c-12 -8 -22 -19 -22 -23 0 -17 33 -21 50 -6 20 18 42 19
58 3 20 -20 14 -48 -13 -58 -31 -12 -33 -38 -2 -42 26 -3 37 -46 15 -59 -21
-14 -54 -10 -68 6 -14 17 -50 20 -50 5 0 -27 41 -50 89 -50 42 0 53 4 70 26
27 34 26 50 -3 79 -24 24 -24 25 -5 35 27 15 25 64 -3 84 -12 9 -38 16 -58 16
-20 0 -46 -7 -58 -16z"/>
<path d="M2523 4147 c-66 -8 -83 -13 -83 -26 1 -32 27 -211 31 -215 10 -11
144 15 161 31 23 21 23 75 0 96 -13 12 -37 17 -79 17 -58 0 -61 1 -66 28 -3
15 -4 28 -3 29 2 2 30 6 64 9 51 6 62 10 62 25 0 11 -1 18 -2 18 -2 -1 -40 -6
-85 -12z m81 -149 c15 -25 -8 -45 -61 -54 l-43 -7 0 36 c0 25 5 37 18 40 33
10 75 2 86 -15z"/>
<path d="M3405 4117 c-32 -32 -35 -40 -35 -95 0 -55 3 -63 30 -85 40 -34 80
-41 123 -23 44 18 67 60 67 120 0 63 -37 104 -102 112 -44 6 -50 4 -83 -29z
m129 -29 c23 -32 20 -90 -5 -122 -26 -32 -70 -35 -100 -5 -18 18 -21 30 -16
72 5 58 24 77 73 77 23 0 38 -7 48 -22z"/>
<path d="M3666 4101 c-3 -9 -12 -54 -21 -101 -9 -47 -18 -92 -21 -101 -4 -14
10 -19 76 -29 73 -11 82 -11 100 5 29 26 34 53 16 80 -15 23 -15 26 4 45 44
44 12 84 -82 104 -61 12 -68 12 -72 -3z m127 -50 c22 -22 -7 -46 -53 -44 -51
2 -53 4 -44 38 6 25 10 27 47 22 21 -3 44 -10 50 -16z m-51 -81 c65 -19 62
-70 -6 -70 -56 0 -68 9 -60 48 7 35 12 37 66 22z"/>
<path d="M2234 4096 c-62 -27 -80 -87 -48 -165 14 -36 60 -71 91 -71 38 0 86
25 103 53 24 39 25 74 4 127 -26 64 -83 85 -150 56z m101 -50 c9 -13 18 -39
21 -57 11 -64 -50 -109 -106 -79 -20 10 -40 59 -40 96 0 59 93 89 125 40z"/>
<path d="M2006 4044 c-44 -13 -80 -25 -81 -26 -1 -2 12 -52 29 -113 23 -79 36
-109 47 -108 7 2 47 13 86 25 54 17 70 26 64 36 -6 10 -20 10 -69 -4 -34 -10
-64 -15 -66 -13 -2 2 -7 18 -10 36 -7 31 -7 31 48 47 35 11 56 22 56 31 0 19
-5 19 -66 0 -51 -15 -58 -13 -68 22 -7 21 -2 24 53 39 46 13 61 22 61 36 0 10
-1 18 -2 17 -2 0 -39 -11 -82 -25z"/>
<path d="M3901 3950 c-40 -56 -72 -103 -70 -105 13 -12 39 -7 55 12 18 20 23
21 66 11 42 -10 47 -14 50 -42 2 -24 8 -32 26 -34 21 -3 23 -1 18 30 -3 18
-10 73 -16 123 -6 49 -12 90 -13 91 -1 1 -11 4 -23 8 -17 5 -32 -10 -93 -94z
m89 0 c0 -22 0 -43 0 -47 -1 -10 -42 -4 -54 7 -9 9 32 80 47 80 4 0 7 -18 7
-40z"/>
<path d="M4117 3993 c-10 -9 -8 -23 2 -23 5 0 21 -4 35 -9 l24 -10 -28 -92
c-29 -93 -30 -109 -5 -109 8 0 25 35 43 93 16 50 33 91 38 90 5 -1 21 -4 35
-8 19 -5 28 -2 32 9 5 11 -12 21 -71 40 -82 28 -95 30 -105 19z"/>
<path d="M1815 3980 c-4 -6 7 -47 24 -91 17 -44 31 -86 31 -93 0 -7 -15 -17
-34 -23 l-34 -11 -35 91 c-36 93 -43 103 -64 89 -10 -6 -5 -29 22 -95 19 -48
35 -90 35 -95 0 -11 -63 -33 -71 -24 -3 4 -21 46 -39 94 -29 78 -35 86 -51 78
-17 -10 -17 -13 8 -78 14 -37 32 -86 40 -109 l15 -42 46 18 c191 75 206 80
214 68 4 -6 8 -18 8 -26 0 -8 6 -11 16 -7 9 3 17 6 19 6 2 0 -4 18 -12 40 -9
22 -22 40 -28 40 -7 0 -28 41 -46 90 -31 84 -48 105 -64 80z"/>
<path d="M4308 3813 l-46 -107 76 -33 c86 -38 88 -38 95 -19 4 11 -11 21 -54
38 -62 24 -66 31 -48 72 l12 25 55 -25 c43 -19 57 -22 63 -12 10 16 5 20 -51
43 -25 10 -46 20 -48 21 -2 1 0 13 4 28 8 31 22 32 75 5 39 -19 69 -20 69 -1
0 7 -138 72 -153 72 -2 0 -24 -48 -49 -107z"/>
<path d="M1408 3814 c-38 -19 -68 -37 -68 -39 0 -10 100 -205 105 -205 11 0
111 53 128 68 23 20 22 74 -1 95 -25 23 -64 21 -113 -4 -23 -11 -42 -19 -44
-17 -1 2 -8 13 -14 26 -14 27 -4 38 62 68 35 16 51 45 25 44 -7 -1 -43 -17
-80 -36z m142 -134 c0 -13 -14 -27 -40 -40 -21 -11 -42 -20 -44 -20 -3 0 -13
14 -21 30 l-16 31 43 19 c47 21 78 13 78 -20z"/>
<path d="M4576 3783 c-69 -130 -75 -138 -95 -137 -31 1 -34 -25 -5 -38 35 -16
49 -5 92 77 20 39 38 72 40 74 4 7 72 -28 72 -36 0 -5 -20 -45 -44 -91 -41
-77 -42 -83 -25 -93 16 -8 24 2 69 91 27 55 50 103 50 108 0 7 -122 72 -135
72 -2 0 -11 -12 -19 -27z"/>
<path d="M1179 3687 c-43 -29 -61 -63 -55 -105 6 -42 49 -100 84 -113 61 -24
152 38 152 103 0 40 -38 107 -72 124 -38 20 -70 17 -109 -9z m106 -43 c37 -40
43 -89 14 -120 -38 -40 -93 -25 -124 36 -21 40 -19 57 10 85 32 33 70 32 100
-1z"/>
<path d="M4775 3650 c-14 -22 -41 -65 -61 -96 -20 -31 -34 -57 -32 -58 42 -34
119 -76 140 -76 36 0 68 32 68 69 0 29 -5 35 -79 90 l-24 18 26 38 c20 29 23
41 14 47 -20 13 -26 10 -52 -32z m24 -104 c39 -20 54 -42 46 -66 -8 -26 -38
-26 -81 0 -33 21 -33 21 -16 50 20 35 16 34 51 16z"/>
<path d="M4956 3451 c-67 -79 -74 -90 -59 -102 13 -12 20 -9 48 24 18 20 36
37 41 37 5 -1 24 -14 43 -30 l33 -28 -33 -41 c-28 -36 -31 -43 -18 -56 12 -12
24 -2 90 78 67 81 74 93 60 104 -13 10 -21 6 -47 -25 l-31 -36 -36 29 c-20 17
-36 34 -36 39 -1 6 11 22 25 37 25 26 28 59 6 59 -5 0 -44 -40 -86 -89z"/>
<path d="M882 3469 c-34 -29 -62 -56 -62 -61 0 -5 32 -47 71 -94 62 -73 74
-83 88 -72 87 68 120 102 110 115 -9 10 -22 3 -64 -33 l-53 -45 -22 31 -21 30
32 28 c18 15 38 32 46 37 8 7 9 15 4 24 -8 12 -18 8 -54 -22 -53 -43 -58 -44
-75 -16 -13 20 -10 25 35 64 35 32 45 46 37 55 -8 8 -27 -3 -72 -41z"/>
<path d="M5200 3329 c-38 -15 -78 -58 -91 -96 -23 -69 52 -152 126 -139 47 9
92 50 106 95 25 85 -62 172 -141 140z m85 -54 c29 -28 32 -56 9 -91 -18 -27
-63 -54 -89 -54 -9 0 -27 11 -41 26 -30 29 -27 64 9 103 42 45 78 51 112 16z"/>
<path d="M692 3294 c-27 -19 -52 -65 -52 -96 0 -55 75 -128 131 -128 41 0 92
41 106 83 16 48 1 90 -46 130 -38 31 -103 37 -139 11z m122 -54 c37 -36 40
-85 7 -112 -29 -23 -48 -23 -89 2 -61 38 -68 109 -12 137 32 16 57 8 94 -27z"/>
<path d="M5343 3075 l-93 -66 47 -69 c42 -64 60 -80 75 -64 4 3 -12 31 -33 62
l-40 56 23 18 c33 25 44 22 70 -19 13 -20 26 -41 29 -45 3 -5 13 -6 22 -2 15
5 12 13 -19 57 l-37 51 24 19 c24 19 24 19 44 -9 45 -62 64 -79 74 -69 7 7 -4
31 -35 75 -25 36 -48 66 -52 68 -4 1 -49 -27 -99 -63z"/>
<path d="M540 3115 c-13 -16 -4 -29 43 -56 24 -14 21 -28 -12 -68 l-28 -34
-37 28 c-31 24 -39 26 -47 14 -5 -8 -8 -17 -6 -21 1 -4 43 -36 92 -72 80 -58
91 -63 102 -49 11 14 7 21 -27 45 -22 17 -40 32 -40 36 0 3 12 23 26 44 28 40
29 40 82 -1 28 -20 35 -22 43 -10 5 8 9 17 9 20 0 5 -139 109 -176 131 -6 4
-17 1 -24 -7z"/>
<path d="M1845 2765 c-192 -46 -359 -86 -370 -88 -11 -2 675 -5 1525 -5 l1545
-1 -375 89 -375 89 -800 0 -800 -1 -350 -83z"/>
<path d="M5561 2776 c-34 -42 -66 -76 -71 -76 -5 0 -18 9 -29 21 -11 12 -24
18 -30 15 -16 -10 8 -53 33 -60 28 -8 152 -7 199 0 61 11 38 29 -36 29 -37 0
-67 3 -67 7 0 4 18 28 40 53 43 49 44 53 31 73 -6 10 -25 -7 -70 -62z"/>
<path d="M466 2799 c-14 -17 -29 -41 -32 -55 -7 -28 -15 -29 -55 -8 -17 8 -37
13 -45 10 -32 -12 -8 -34 84 -75 53 -25 100 -46 105 -48 9 -5 67 122 67 148 0
26 -39 59 -71 59 -18 0 -36 -10 -53 -31z m77 -31 c8 -12 6 -27 -8 -57 -10 -23
-20 -41 -22 -41 -2 0 -17 7 -34 15 -29 16 -29 16 -13 48 31 61 54 72 77 35z"/>
<path d="M275 2598 c-3 -7 -11 -41 -19 -76 -16 -70 -20 -65 59 -82 109 -23
125 -30 125 -50 0 -11 7 -20 15 -20 10 0 15 11 15 35 0 37 1 37 -146 75 l-42
10 10 40 c8 30 15 39 27 36 9 -3 45 -12 81 -21 36 -9 72 -18 81 -21 11 -3 18
3 22 16 6 21 2 23 -136 54 -82 19 -86 19 -92 4z"/>
<path d="M1752 2443 l-2 -173 263 2 262 3 -257 2 -258 3 -3 168 -3 167 -2
-172z"/>
<path d="M2748 2445 l3 -165 -80 0 -80 0 -4 108 -3 107 -2 -107 -2 -108 -84 0
c-58 0 -86 4 -89 13 -3 7 -6 5 -6 -5 -1 -17 18 -18 264 -18 l265 0 0 170 c0
94 -3 170 -7 170 -5 0 -7 -74 -5 -165 l3 -165 -81 0 -81 0 3 165 c2 105 -1
165 -7 165 -6 0 -9 -60 -7 -165z"/>
<path d="M3058 2468 c1 -78 5 -144 7 -146 2 -3 4 61 4 142 -1 80 -4 146 -7
146 -4 0 -6 -64 -4 -142z"/>
<path d="M3233 2560 c0 -30 2 -43 4 -27 2 15 2 39 0 55 -2 15 -4 2 -4 -28z"/>
<path d="M3568 2445 l3 -165 -80 0 -81 0 -3 163 -3 162 -2 -162 -2 -163 -80 0
-79 0 -4 108 -3 107 -2 -108 -2 -108 -82 3 c-60 2 -82 6 -80 16 1 6 -3 12 -9
12 -6 0 -8 -7 -5 -16 3 -9 6 -18 6 -20 0 -2 117 -4 260 -4 l260 0 0 170 c0 94
-3 170 -7 170 -5 0 -7 -74 -5 -165z"/>
<path d="M3713 2560 c0 -30 2 -43 4 -27 2 15 2 39 0 55 -2 15 -4 2 -4 -28z"/>
<path d="M3881 2558 c1 -55 5 -50 11 15 2 20 0 37 -4 37 -4 0 -7 -24 -7 -52z"/>
<path d="M4053 2550 c0 -36 2 -50 4 -32 2 17 2 47 0 65 -2 17 -4 3 -4 -33z"/>
<path d="M4215 2440 c0 -93 3 -170 8 -170 4 0 7 77 7 170 0 94 -3 170 -7 170
-5 0 -8 -76 -8 -170z"/>
<path d="M5656 2585 c-21 -7 -43 -18 -48 -23 -14 -14 -13 -75 1 -101 16 -28 9
-37 -34 -45 -26 -5 -35 -12 -35 -26 0 -11 4 -20 10 -20 10 0 213 52 218 56 2
1 1 11 -2 22 -6 19 -9 19 -58 5 -55 -16 -61 -13 -74 34 -10 37 2 52 51 64 33
8 45 16 45 30 0 23 -20 24 -74 4z"/>
<path d="M1923 2540 c0 -25 2 -35 4 -22 2 12 2 32 0 45 -2 12 -4 2 -4 -23z"/>
<path d="M2091 2524 c0 -11 3 -14 6 -6 3 7 2 16 -1 19 -3 4 -6 -2 -5 -13z"/>
<path d="M2400 2516 c0 -8 4 -17 9 -20 5 -4 7 3 4 14 -6 23 -13 26 -13 6z"/>
<path d="M3882 2393 l-2 -113 -80 0 -79 0 -4 98 -3 97 -2 -102 -2 -103 248 2
c136 1 215 4 175 5 l-72 4 -4 102 -3 102 -2 -102 -2 -103 -80 0 -79 0 -4 113
-3 112 -2 -112z"/>
<path d="M2403 2405 c0 -33 2 -45 4 -27 2 18 2 45 0 60 -2 15 -4 0 -4 -33z"/>
<path d="M1923 2400 c0 -25 2 -35 4 -22 2 12 2 32 0 45 -2 12 -4 2 -4 -23z"/>
<path d="M340 2305 c-101 -37 -115 -45 -118 -67 -3 -23 6 -28 107 -71 61 -26
113 -47 116 -47 17 0 1 39 -20 48 -22 10 -25 18 -25 62 0 48 2 52 30 61 22 8
30 17 30 35 0 13 -1 24 -2 23 -2 -1 -55 -20 -118 -44z m30 -70 c0 -32 -11 -37
-53 -22 -49 16 -49 28 -2 42 48 14 55 11 55 -20z"/>
<path d="M5550 2286 c0 -22 3 -23 44 -19 l44 5 7 -49 c7 -57 12 -66 42 -82 33
-17 51 -14 78 14 22 21 25 33 25 90 l0 65 -120 0 c-120 0 -120 0 -120 -24z
m198 -58 c-3 -40 -5 -43 -33 -43 -28 0 -30 3 -33 43 l-3 42 36 0 36 0 -3 -42z"/>
<path d="M1752 2023 l-2 -172 193 1 c105 0 184 3 174 5 -16 4 -18 18 -15 169
2 90 0 164 -4 164 -5 0 -8 -74 -8 -165 l0 -165 -80 0 -80 0 -3 168 -3 167 -2
-167 -2 -168 -80 0 -80 0 -3 168 -3 167 -2 -172z"/>
<path d="M2255 2020 c0 -93 3 -170 8 -170 4 0 7 77 7 170 0 94 -3 170 -7 170
-5 0 -8 -76 -8 -170z"/>
<path d="M2405 2023 l0 -168 173 -3 172 -2 -2 107 -2 108 -3 -102 -4 -103
-164 0 -165 0 -3 165 -3 165 1 -167z"/>
<path d="M2572 2028 c2 -164 5 -145 10 55 2 59 0 107 -4 107 -5 0 -7 -73 -6
-162z"/>
<path d="M2744 2176 c-3 -7 -4 -33 -2 -57 3 -43 4 -42 8 14 5 58 4 68 -6 43z"/>
<path d="M2913 2140 c0 -30 2 -43 4 -27 2 15 2 39 0 55 -2 15 -4 2 -4 -28z"/>
<path d="M3051 2133 c1 -62 6 -56 11 15 2 23 0 42 -4 42 -5 0 -7 -26 -7 -57z"/>
<path d="M3221 2133 c1 -62 6 -56 11 15 2 23 0 42 -4 42 -5 0 -7 -26 -7 -57z"/>
<path d="M3391 2133 c1 -62 6 -56 11 15 2 23 0 42 -4 42 -5 0 -7 -26 -7 -57z"/>
<path d="M3700 2020 l0 -170 238 2 237 3 -233 2 -233 3 3 165 c2 91 0 165 -4
165 -5 0 -8 -76 -8 -170z"/>
<path d="M330 2062 c-58 -8 -106 -15 -107 -16 -7 -5 24 -181 32 -181 6 0 58 6
118 14 96 12 107 16 107 34 0 21 -18 21 -161 1 l-46 -6 -7 47 c-4 26 -6 49 -4
51 2 2 46 10 96 17 51 8 95 17 98 20 8 8 -3 37 -13 36 -4 -1 -55 -8 -113 -17z"/>
<path d="M3222 1968 l-2 -108 -80 0 -79 0 -4 103 -3 102 -2 -107 -2 -108 183
2 c100 1 141 4 90 5 l-92 4 -4 107 -3 107 -2 -107z"/>
<path d="M5540 2003 c-6 -38 -14 -76 -17 -85 -3 -13 1 -18 15 -18 16 0 21 9
26 53 9 70 15 79 55 71 32 -7 32 -7 25 -52 -11 -70 -10 -77 6 -77 11 0 18 17
24 58 8 58 21 69 55 48 11 -7 12 -21 4 -70 -9 -54 -8 -61 7 -61 13 0 20 16 29
69 6 39 11 76 11 84 0 10 -29 19 -100 30 -54 10 -106 17 -113 17 -10 0 -19
-21 -27 -67z"/>
<path d="M2914 1950 c0 -58 1 -81 3 -52 2 28 2 76 0 105 -2 28 -3 5 -3 -53z"/>
<path d="M5514 1845 c-5 -20 1 -33 30 -65 54 -60 48 -73 -21 -45 -44 19 -49
19 -57 -1 -4 -11 7 -21 45 -36 47 -20 50 -23 33 -35 -10 -7 -39 -13 -65 -13
-44 0 -59 -10 -59 -39 0 -8 118 4 127 13 10 9 72 -74 66 -89 -3 -9 1 -15 10
-15 19 0 27 32 14 56 -5 10 -21 31 -35 46 -31 34 -22 46 21 29 46 -18 61 -18
65 0 2 12 -10 22 -42 34 -26 10 -46 21 -46 25 0 12 28 20 69 20 44 0 83 32 63
52 -9 9 -15 8 -24 -4 -17 -21 -108 -31 -108 -12 0 7 -18 33 -40 59 -39 45 -40
45 -46 20z"/>
<path d="M2163 1853 c15 -2 39 -2 55 0 15 2 2 4 -28 4 -30 0 -43 -2 -27 -4z"/>
<path d="M2798 1853 c17 -2 47 -2 65 0 17 2 3 4 -33 4 -36 0 -50 -2 -32 -4z"/>
<path d="M3448 1853 c17 -2 47 -2 65 0 17 2 3 4 -33 4 -36 0 -50 -2 -32 -4z"/>
<path d="M380 1793 c-52 -20 -97 -38 -98 -39 -2 -1 -1 -11 2 -22 6 -16 22 -23
79 -32 40 -7 81 -16 92 -20 18 -7 16 -9 -15 -22 -19 -8 -52 -21 -73 -28 -39
-15 -41 -18 -29 -37 6 -10 33 -3 112 28 58 22 106 42 108 44 2 2 -1 12 -7 23
-8 16 -29 23 -96 33 -47 7 -85 16 -85 20 0 4 31 19 69 34 51 19 68 30 64 41
-7 20 -15 18 -123 -23z"/>
<path d="M1913 1715 c0 -33 2 -45 4 -27 2 18 2 45 0 60 -2 15 -4 0 -4 -33z"/>
<path d="M2078 1605 l3 -165 -80 0 -80 0 -4 108 -3 107 -2 -108 -2 -108 -85 3
c-47 2 -85 0 -85 -4 0 -4 117 -7 260 -8 l260 0 -2 173 -2 172 -3 -167 -3 -168
-80 0 -80 0 0 165 c0 91 -3 165 -7 165 -5 0 -7 -74 -5 -165z"/>
<path d="M2350 1735 l0 -35 630 0 630 0 0 35 0 35 -630 0 -630 0 0 -35z"/>
<path d="M3690 1600 l0 -170 88 2 87 2 -83 3 -83 4 3 164 c2 91 0 165 -4 165
-5 0 -8 -76 -8 -170z"/>
<path d="M3862 1608 c2 -164 5 -145 10 55 2 59 0 107 -4 107 -5 0 -7 -73 -6
-162z"/>
<path d="M4031 1708 c1 -68 6 -61 11 15 2 26 0 47 -4 47 -5 0 -7 -28 -7 -62z"/>
<path d="M1741 1734 c0 -11 3 -14 6 -6 3 7 2 16 -1 19 -3 4 -6 -2 -5 -13z"/>
<path d="M1742 1690 c0 -14 2 -19 5 -12 2 6 2 18 0 25 -3 6 -5 1 -5 -13z"/>
<path d="M585 1629 c-16 -10 -30 -24 -30 -31 0 -7 -37 -34 -82 -61 -72 -43
-81 -52 -73 -68 9 -17 16 -14 93 31 45 28 85 50 89 50 8 0 48 -64 48 -78 0 -5
-36 -31 -80 -57 -74 -44 -94 -65 -71 -80 12 -7 201 106 201 120 0 5 -19 39
-41 74 l-41 65 23 16 c12 10 19 22 15 29 -9 14 -15 13 -51 -10z"/>
<path d="M1744 1550 c0 -52 1 -74 3 -47 2 26 2 68 0 95 -2 26 -3 4 -3 -48z"/>
<path d="M5351 1606 c-10 -12 -8 -17 8 -26 28 -15 27 -22 -15 -88 -45 -71 -41
-67 -59 -52 -15 12 -45 8 -45 -7 0 -13 78 -54 82 -43 2 6 42 -14 89 -43 l85
-54 24 36 c13 20 32 50 42 68 l19 32 -58 39 c-65 44 -89 69 -94 95 -2 10 -18
27 -35 38 -27 17 -33 17 -43 5z m69 -104 c0 -7 50 -47 103 -83 5 -4 5 -14 -2
-25 -28 -50 -25 -50 -100 -5 -39 24 -71 45 -71 47 0 1 9 19 21 38 19 32 49 49
49 28z"/>
<path d="M3913 1433 c26 -2 67 -2 90 0 23 2 2 3 -48 3 -49 0 -68 -1 -42 -3z"/>
<path d="M4098 1433 c23 -2 59 -2 80 0 20 2 1 4 -43 4 -44 0 -61 -2 -37 -4z"/>
<path d="M660 1351 c-30 -25 -71 -58 -90 -73 -32 -25 -34 -29 -18 -44 14 -15
25 -15 103 -4 47 7 88 10 91 7 3 -3 -22 -26 -55 -52 -48 -38 -59 -51 -50 -61
14 -17 23 -12 121 69 73 61 76 65 60 80 -16 15 -28 15 -105 4 -48 -7 -87 -10
-87 -6 0 4 25 27 55 51 59 46 62 50 43 66 -9 7 -28 -3 -68 -37z"/>
<path d="M5201 1300 c-38 -43 -51 -66 -46 -78 6 -14 16 -7 56 38 l48 55 27
-26 26 -27 -37 -41 c-26 -29 -35 -46 -30 -58 6 -15 14 -10 51 32 l44 49 22
-21 21 -22 -41 -49 c-33 -39 -39 -52 -29 -61 10 -8 26 5 69 56 l55 66 -84 74
c-46 40 -87 73 -92 73 -4 0 -32 -27 -60 -60z"/>
<path d="M797 1125 c-67 -72 -77 -88 -66 -101 11 -13 17 -10 49 21 l36 35 34
-34 33 -35 -28 -36 c-23 -31 -25 -39 -14 -50 12 -12 27 0 93 71 66 71 76 87
65 100 -11 13 -17 10 -51 -23 l-38 -37 -37 37 -37 37 37 38 c29 30 34 41 25
50 -7 7 -14 12 -17 12 -4 0 -41 -39 -84 -85z"/>
<path d="M5091 1186 c-13 -15 -10 -21 22 -54 l37 -38 -33 -32 c-18 -18 -38
-32 -44 -32 -6 0 -24 15 -40 34 -26 29 -32 31 -47 20 -16 -12 -11 -21 66 -99
72 -75 85 -85 96 -72 11 13 8 21 -19 51 -17 20 -30 38 -28 39 2 1 19 15 37 31
l32 30 35 -34 c31 -30 37 -32 49 -20 13 13 4 27 -67 104 -74 80 -84 87 -96 72z"/>
<path d="M4901 1021 c-11 -7 -12 -25 -3 -97 6 -49 8 -91 5 -94 -2 -3 -14 9
-26 25 -49 67 -75 91 -88 78 -9 -9 1 -29 47 -88 32 -42 64 -83 70 -91 7 -8 19
-12 29 -8 15 6 17 17 11 88 -4 45 -9 89 -12 99 -10 33 11 16 54 -43 45 -61 59
-71 68 -46 5 13 -121 186 -135 186 -3 0 -12 -4 -20 -9z"/>
<path d="M1002 934 c-92 -50 -101 -57 -85 -69 15 -11 25 -8 71 22 30 19 56 32
59 30 2 -3 -3 -33 -12 -67 -12 -48 -13 -65 -4 -76 6 -8 15 -14 18 -14 4 0 15
42 25 94 19 99 30 115 68 95 25 -13 36 -4 22 19 -20 31 -56 23 -162 -34z"/>
<path d="M1166 822 l-64 -97 30 -19 29 -19 52 49 c28 27 55 53 59 59 19 25 16
-9 -7 -75 -14 -40 -25 -76 -25 -79 0 -4 12 -14 27 -23 l27 -16 62 96 c46 71
60 100 52 109 -15 18 -21 12 -69 -67 -24 -39 -47 -70 -51 -70 -4 0 6 38 23 85
34 99 34 101 13 109 -10 4 -38 -14 -82 -54 -36 -32 -68 -58 -70 -55 -2 2 15
31 37 64 52 76 56 87 36 95 -12 4 -32 -19 -79 -92z"/>
<path d="M4647 844 c-63 -36 -76 -48 -67 -59 9 -11 21 -8 68 20 l56 34 18 -27
c10 -15 18 -30 18 -34 0 -4 -22 -19 -50 -34 -27 -15 -50 -31 -50 -35 0 -20 24
-18 70 8 49 27 50 27 64 8 9 -11 16 -23 16 -27 0 -3 -25 -21 -55 -38 -54 -31
-64 -43 -46 -54 7 -5 130 59 148 77 3 4 -97 190 -111 204 -1 1 -37 -18 -79
-43z"/>
<path d="M3665 600 c8 -12 -65 -64 -158 -112 -40 -21 -66 -38 -58 -38 34 0
241 130 241 151 0 5 -7 9 -16 9 -8 0 -12 -4 -9 -10z"/>
<path d="M2417 3212 c-19 -21 -23 -92 -7 -123 7 -13 21 -19 45 -19 41 0 55 20
55 77 0 71 -54 108 -93 65z"/>
<path d="M3091 3167 c-14 -43 -12 -50 16 -45 17 3 18 7 8 43 l-12 40 -12 -38z"/>
<path d="M3800 3165 c0 -28 4 -35 20 -35 16 0 20 7 20 35 0 28 -4 35 -20 35
-16 0 -20 -7 -20 -35z"/>
</g>
</svg>
